# xmcd CD database file
#
# Track frame offsets:
#	150
#	13800
#	26700
#	39450
#	52950
#	63900
#	77925
#	87975
#	100125
#	112650
#	127650
#	142200
#	157800
#	171150
#	186900
#	197175
#	215550
#	228975
#	243750
#	256275
#
# Disc length: 3590 seconds
#
# Revision: 1
# Processed by: cddbd v1.5.1PL2 Copyright (c) Steve Scherf et al.
# Submitted via: freeDBTagger 0.8.2.1
#
DISCID=080e0414
DTITLE=The Cowsills - The Best Of
DYEAR=2001
DGENRE=rock
TTITLE0=The Rain, The Park, and Other Things
TTITLE1=The Path of Love
TTITLE2=Meet Me at the Wishing Well
TTITLE3=In Need of a Friend
TTITLE4=Mister Flynn
TTITLE5=Captain Sad and His Ship of Fools
TTITLE6=We Can Fly
TTITLE7=Indian Lake
TTITLE8=Gray, Sunny Day
TTITLE9=A Time For Remembrance
TTITLE10=Gotta Get Away From it All
TTITLE11=Newspaper Blanket
TTITLE12=Poor Baby
TTITLE13=Hair
TTITLE14=Most of All
TTITLE15=The Prophesy of Daniel and Joh
TTITLE16=Silver Threads and Golden Need
TTITLE17=II x II
TTITLE18=Love American Style
TTITLE19=When Everybody's Here
EXTD=
EXTT0=
EXTT1=
EXTT2=
EXTT3=
EXTT4=
EXTT5=
EXTT6=
EXTT7=
EXTT8=
EXTT9=
EXTT10=
EXTT11=
EXTT12=
EXTT13=
EXTT14=
EXTT15=
EXTT16=
EXTT17=
EXTT18=
EXTT19=
PLAYORDER=
